<?xml version="1.0" encoding="UTF-8"?>
<svg xmlns="http://www.w3.org/2000/svg" viewBox="0 0 800 1131" width="800" height="1131">

  <!-- ===== DOCUMENT SHAPE 1: upper right, tilted ===== -->
  <rect x="430" y="120" width="300" height="420" rx="4"
        fill="white" opacity="0.07"
        transform="rotate(3.5, 580, 330)"/>
  <rect x="442" y="132" width="276" height="396" rx="3"
        fill="none" stroke="white" stroke-width="0.4" opacity="0.06"
        transform="rotate(3.5, 580, 330)"/>
  <!-- Faux text lines on doc 1 -->
  <g transform="rotate(3.5, 580, 330)" opacity="0.045">
    <line x1="460" y1="175" x2="700" y2="175" stroke="white" stroke-width="2"/>
    <line x1="460" y1="198" x2="680" y2="198" stroke="white" stroke-width="2"/>
    <line x1="460" y1="221" x2="695" y2="221" stroke="white" stroke-width="2"/>
    <line x1="460" y1="244" x2="660" y2="244" stroke="white" stroke-width="2"/>
    <line x1="460" y1="267" x2="710" y2="267" stroke="white" stroke-width="2"/>
    <line x1="460" y1="290" x2="685" y2="290" stroke="white" stroke-width="2"/>
    <line x1="460" y1="313" x2="700" y2="313" stroke="white" stroke-width="2"/>
    <line x1="460" y1="336" x2="672" y2="336" stroke="white" stroke-width="2"/>
    <line x1="460" y1="359" x2="695" y2="359" stroke="white" stroke-width="2"/>
    <line x1="460" y1="382" x2="650" y2="382" stroke="white" stroke-width="2"/>
  </g>

  <!-- ===== DOCUMENT SHAPE 2: lower left, tilted opposite ===== -->
  <rect x="60" y="490" width="280" height="390" rx="4"
        fill="white" opacity="0.055"
        transform="rotate(-2.5, 200, 685)"/>
  <rect x="72" y="502" width="256" height="366" rx="3"
        fill="none" stroke="white" stroke-width="0.4" opacity="0.045"
        transform="rotate(-2.5, 200, 685)"/>
  <!-- Faux text lines on doc 2 -->
  <g transform="rotate(-2.5, 200, 685)" opacity="0.035">
    <line x1="90" y1="535" x2="310" y2="535" stroke="white" stroke-width="2"/>
    <line x1="90" y1="558" x2="295" y2="558" stroke="white" stroke-width="2"/>
    <line x1="90" y1="581" x2="305" y2="581" stroke="white" stroke-width="2"/>
    <line x1="90" y1="604" x2="275" y2="604" stroke="white" stroke-width="2"/>
    <line x1="90" y1="627" x2="310" y2="627" stroke="white" stroke-width="2"/>
    <line x1="90" y1="650" x2="290" y2="650" stroke="white" stroke-width="2"/>
    <line x1="90" y1="673" x2="305" y2="673" stroke="white" stroke-width="2"/>
    <line x1="90" y1="696" x2="260" y2="696" stroke="white" stroke-width="2"/>
  </g>

  <!-- ===== DOCUMENT SHAPE 3: bottom center, small ===== -->
  <rect x="300" y="720" width="320" height="310" rx="4"
        fill="white" opacity="0.04"
        transform="rotate(1.5, 460, 875)"/>
  <rect x="312" y="732" width="296" height="286" rx="3"
        fill="none" stroke="white" stroke-width="0.3" opacity="0.035"
        transform="rotate(1.5, 460, 875)"/>

  <!-- ===== NOTEBOOK RULED LINES (full width, subtle) ===== -->
  <g stroke="white" stroke-width="0.3" opacity="0.14">
    <line x1="35" y1="220" x2="765" y2="220"/>
    <line x1="35" y1="248" x2="765" y2="248"/>
    <line x1="35" y1="276" x2="765" y2="276"/>
    <line x1="35" y1="304" x2="765" y2="304"/>
    <line x1="35" y1="332" x2="765" y2="332"/>
    <line x1="35" y1="360" x2="765" y2="360"/>
    <line x1="35" y1="388" x2="765" y2="388"/>
    <line x1="35" y1="416" x2="765" y2="416"/>
    <line x1="35" y1="444" x2="765" y2="444"/>
    <line x1="35" y1="472" x2="765" y2="472"/>
    <line x1="35" y1="500" x2="765" y2="500"/>
    <line x1="35" y1="528" x2="765" y2="528"/>
    <line x1="35" y1="556" x2="765" y2="556"/>
    <line x1="35" y1="584" x2="765" y2="584"/>
    <line x1="35" y1="612" x2="765" y2="612"/>
    <line x1="35" y1="640" x2="765" y2="640"/>
    <line x1="35" y1="668" x2="765" y2="668"/>
    <line x1="35" y1="696" x2="765" y2="696"/>
    <line x1="35" y1="724" x2="765" y2="724"/>
    <line x1="35" y1="752" x2="765" y2="752"/>
    <line x1="35" y1="780" x2="765" y2="780"/>
    <line x1="35" y1="808" x2="765" y2="808"/>
    <line x1="35" y1="836" x2="765" y2="836"/>
    <line x1="35" y1="864" x2="765" y2="864"/>
    <line x1="35" y1="892" x2="765" y2="892"/>
    <line x1="35" y1="920" x2="765" y2="920"/>
    <line x1="35" y1="948" x2="765" y2="948"/>
    <line x1="35" y1="976" x2="765" y2="976"/>
  </g>

  <!-- ===== LEFT MARGIN LINE (notebook style) ===== -->
  <line x1="75" y1="200" x2="75" y2="990"
        stroke="white" stroke-width="0.6" opacity="0.10"/>

  <!-- ===== PEN SHAPE (lower right, angled) ===== -->
  <g transform="translate(610, 860) rotate(-28)" opacity="0.14">
    <rect x="0" y="0" width="5" height="85" rx="2.5" fill="white"/>
    <polygon points="0.5,85 4.5,85 2.5,100" fill="white" opacity="0.85"/>
    <rect x="-0.5" y="-3" width="6" height="10" rx="2" fill="white" opacity="0.7"/>
    <rect x="5" y="5" width="1.5" height="28" rx="0.5" fill="white" opacity="0.5"/>
  </g>

  <!-- ===== PAPER FIBER DOTS (scattered) ===== -->
  <g fill="white" opacity="0.12">
    <circle cx="120" cy="280" r="0.6"/>
    <circle cx="340" cy="190" r="0.8"/>
    <circle cx="560" cy="340" r="0.5"/>
    <circle cx="200" cy="420" r="0.7"/>
    <circle cx="680" cy="560" r="0.6"/>
    <circle cx="90" cy="650" r="0.5"/>
    <circle cx="420" cy="750" r="0.8"/>
    <circle cx="300" cy="880" r="0.6"/>
    <circle cx="720" cy="210" r="0.5"/>
    <circle cx="150" cy="780" r="0.7"/>
    <circle cx="500" cy="480" r="0.5"/>
    <circle cx="250" cy="560" r="0.6"/>
    <circle cx="640" cy="680" r="0.7"/>
    <circle cx="380" cy="920" r="0.5"/>
    <circle cx="550" cy="150" r="0.6"/>
    <circle cx="100" cy="930" r="0.8"/>
    <circle cx="700" cy="420" r="0.5"/>
    <circle cx="450" cy="600" r="0.6"/>
    <circle cx="180" cy="350" r="0.7"/>
    <circle cx="620" cy="780" r="0.5"/>
    <circle cx="480" cy="280" r="0.4"/>
    <circle cx="75" cy="400" r="0.6"/>
    <circle cx="730" cy="850" r="0.5"/>
    <circle cx="260" cy="170" r="0.7"/>
    <circle cx="590" cy="950" r="0.6"/>
    <circle cx="350" cy="1050" r="0.5"/>
    <circle cx="160" cy="1080" r="0.6"/>
    <circle cx="660" cy="1100" r="0.4"/>
  </g>

  <!-- ===== PAPER FIBER LINES (short, random angles) ===== -->
  <g stroke="white" stroke-width="0.3" opacity="0.06" stroke-linecap="round">
    <line x1="220" y1="310" x2="235" y2="305"/>
    <line x1="580" y1="450" x2="570" y2="465"/>
    <line x1="400" y1="620" x2="415" y2="625"/>
    <line x1="130" y1="540" x2="145" y2="535"/>
    <line x1="670" y1="320" x2="680" y2="335"/>
    <line x1="310" y1="780" x2="300" y2="790"/>
    <line x1="520" y1="160" x2="530" y2="150"/>
    <line x1="750" y1="700" x2="740" y2="712"/>
    <line x1="60" cy="820" x2="72" y2="815"/>
    <line x1="440" y1="980" x2="455" y2="975"/>
  </g>

</svg>
